<svg fill="none" viewBox="0 0 120 120" xmlns="http://www.w3.org/2000/svg"><g fill="currentColor"><path d="m20.2876 27.3953c.0714.1172.1014.1213.0966.2292l-.0041.0531c-.0239.0337-.3679.8091-.518.0409-.0606-.3106.2215-.3845.2361-.3966z"/><path d="m40.0091 15.3687c.6323.611-.2649.841-.3863.628-.1046-.1838.177-.369.3863-.628z"/><path clip-rule="evenodd" d="m45.9335 4.69043c.0487.03547.0264.04763.5752.4863.1532.0592.144.07746.3086.06498.0424.02736.0849.05467.1273.08203.2799-.18288.3144-.17406.5917.01411.0287-.03617.81-.83152.4766.32582-.066.22937-.0483.22139-.1613.43386.0146.14667.0142.13967.0883.26768.3691.27024.251.46268-.2032.56234-.122.00551-.1141.01533-.328.07445-.4348.59861-.0777.68954-.2462 1.45669-.068.30956-.2004 3.90841.0227 4.83601.0353-.043.1307.024.1661-.019.1492-.1824.0498-.2263.9267-2.7958.2714-.79552.4134-.73797.5784-1.56955.0474-.23873.1897-.29869.1974-.34519.2259-1.3677.6959-.16613.9621-.02907.048.02478.4718-.03069.4638.37763-.0049.24422-.2247.29247-.2332.45934-.0324.63754-.0708.73624-.6953.81824-.4693.0615-.4783-1.00675-.7098-.3988-.1195.314-.0836.3247-1.3999 3.9604-.0107.4646.2842.0474 3.5795-1.3293.1752-.0732.1488-.1261 2.149-1.0083.1071-.0473.7719-.3405 1.3314-.6043.7798-.4194.6257-.5987.562-.6189-.0123-.0039-.0326-.0406-.5512.3226-.2232.1274-.2425.2498-.4258.1299l-.0389-.0271-.0252-.0345c-.4066-.5752.1139-.72171.412-.94551.0054-.00872.0109-.01527.0159-.01833.0017-.00101.0034-.00167.005-.002l.0047.00011c.0593-.04778.1077-.09941.1342-.15986.0207-.04709.1347-.30715.4883-.4169.3556-.11034.3215.09785.6789.1885.2202.05585.124.1298.0873.35477-.0319.02556-.0589.04932-.0816.07129.0152-.01465.0322-.03011.0513-.04633.0096-.0081.0197-.01646.0303-.02496.0814.07601.1629.15208.2444.22809.1203.13947.0605.15798.1477.31573.0394.0713.4095-.0672.5065.044.2361.2707-.0121.5126.4826.6276.3553.0827-.0565.6237-.4592.635-.2394.0068-.9669-.8136-.7531-.2757.1142.2873.1555.2704.1675.5723.0088.2245.2575.1062.2349.3337-.0032.0317-.0215.2133-.2197.3318-.3412.204-.5428-.7465-.7978-1.1082-.1992-.0906-.1976-.0908-.2151-.0978-.0573-.0232-.0515-.0058-.1109-.0299-.2589.0384-.2263.0874-.3833.307-.2868.4009-.4417-.2079-.98.0183-.9078.3814-.8771.421-1.7855.8286-3.3381 1.4977-3.5182 1.6458-3.7854 1.7663l-.0555.0241-.0369.0474c-.0742.0995-.0634.1286.0406.2527.2639.1165.313.0652.3595.239.0629.2347.1545.1606 2.225.8989.2298.0892.2283.0882.4472-.004.3187-.0091.3168-.0109.3443-.0099.4206.0161.9183 1.5544.1147 1.2555-.2932-.1091-.2516.1462-.5663.1557-.4456.0135-.8258.1805-.7129-.3781.2367-1.1712-.4762-.921-2.111-1.5693-.0296.0226-.0823-.0189-.112.0037.0002.0018.0169.1933.0184.2104.7288.7156 1.9798 2.1465 2.4921 2.69.4991.5295.5631.4461 1.0615.9627.2733.2833.3264.0764.7161.0728.58-.0052-.4988.8749.3385 1.3549.0815.0339.1631.0679.2446.1018.1259.1119 1.0101.2976.7555.7914-.3152.6112-.9564.1823-1.1024.1174l-.0125-.0052.0817.2342c.0329.2687.0962.5189-.5291.4469-.2233-.1123-.2148-.1124-.2337-.1213-.4067.3271.0306.6252.224.4478.0697-.064.2415-.1078.2643.1205.0853.852-1.064.3811-1.145.8008-.0517.2671-2.0344-.0077-2.29.1876-.4131.3158-.0142.4179.0326.586.0722.2599.1631.1364.4335.1268l.0446.2191c-.0406.3091.0399.3309-.1489.5665-.4307.5375.3953.4861.4069.6783.0185.3037-.2232.5129-.2472.5705-.054.13.1183.6534.2933.0997.1602-.5066 1.0405-.6376 1.0272-.3413-.0083.1859.0175.1873.201.2397.2435.0695.5323 1.1839-.0177 1.7199l-.0268.0251.0343.282c.0006.0113.1541.1771-.2373.5113-.4028.3441-.3761.3731-.4203.3843-.4668.119-.5067.111-.6949.5487-.3724.8669-6.7099-.2024-5.7176.5522.5852.445-.0888.3392-.111.3231-.3563-.2582-.3856-.1536-.8203-.1782-.0661-.0276-.1323-.0552-.1984-.0828-4.0829 3.2847-3.9105 3.7176-5.7089 5.5445-1.8074 1.8359-3.1939 3.4042-3.3862 3.6051-.2253.2353-2.7918 2.9158-2.8141 2.9425-.663.7909-.6925.7588-2.6673 2.7342-1.7638 1.7642-1.6116 1.8827-2.5982 4.1622-.0545.1258-.4367 1.009-.6276 1.5938-.6817 2.0881-.7415 2.0641-.7871 2.2492-.0444.1804-.4668 1.8944-.5816 2.2467-.7218 2.2146-2.0627 10.3758-1.9087 10.6678.1694.3216.2365.0406.5534-.1564 1.1721-.7283 1.2071-.6706 1.2957-.7511.3224-.293 5.334-2.9889 5.4239-3.0428 2.3533-1.4145 2.4143-1.3006 2.6021-1.4468.3217-.2506 4.9535-2.5934 5.69-3.0922.7179-.4864-.001-.8837 1.172-2.9924.6186-1.112.6772-1.0615 1.0876-1.763.1954-.3339.4555-.3749.7235-.7166.4161-.5303.3239-.5755.6595-1.0237.6344-.9834.5424-1.0677.713-1.1132.6038-.1608-.3185.9645-.4245 1.2215.0611-.0271.7043-.3126.7694-.3291.9832-.2489-.5231.6351-.5846.6712-.8849.5193-.5047.8633-1.0977 1.3881-.7725.6835-1.8802 2.8874-2.0147 3.155-.4279.8514-.0992.8619-.0304.8582 1.2261-.0654 1.2649-.1275 1.4658-.5337.0349-.0702.4109-.2358.4223-.2585.0271-.0539.014-.1248.0484-.1745.1192-.1722.142-.0202.2522.155.1093.1736.2158-.1374.4218.0415.4599.3992.5229.2524 1.1092.0844 1.4225-.4073 1.8589-.6602 2.1822-.2975-.1309.0773-.1028.1074-.2439.1439-.2324.0603-.2256.0495-.4608.0902-1.0413.1797-2.8129 1.0001-1.693.7422.2105-.0486 1.653-.381 2.6081-.7017 7.03-1.9243 7.3722-2.2184 7.8762-2.6514 2.2419-1.926 2.204-2.1011 2.1504-2.35-.0364-.1693.2356-1.7202.8026-1.6086.674.1327.6685.0071 1.3452-.0232.6681-.0299 3.5882-3.6269 5.2809-4.7131.0693-.0445.0506-.0567.8377-.5995.5255-.3623.5708-.2663 1.1279-.5922-.0448-.0403-.0895-.0807-.1342-.121-3.4225.7945-3.6302.2709-5.5221 1.5838l.0026.0056c.0082.0288-.0514.0673-.0334.0947.0201.0301.9254.3193.5481.8874-.0674.1014-.1511.6133-.4499.278-.185-.2075-.2035-.6716.1521-.551.6709.2277-.2692-.2786-.5799-.5551-.344-.1269-.6149-.2809-.4733.0642.2255.549.2267.8092.3724 1.0073.1259.1712-.1241.604-.5576.4357-.1132-.0439-.1085-.0293-.2282-.0616-.1102.1058-.1107.0928-.22.196-.666.6291-.5514-.0761-.5426-.1196.036-.1771-.138-.305.2128-.5202.3017-.1619.3075-.142.3329-.1569-.0079-.0739-.0158-.1478-.0237-.2217-.1712-.0492-.1664-.0316-.3377-.0835-.234-.285-.0173-.6781-.3224-.473-.2022.1359-.2873.2748-.3832.0148-.2052-.5561-.8116-.4667-.6757-.9495.0944.0003.9988.0037 1.1365-.3093-.4915-.281-.7227-.0016-1.1202.2078.0031-.0926.0829-.0899.0105-.3185-.1004-.3162.1345-.8455.6649-.4286.1151.0906.1185.0685.6017.22.21-.2067.2612-.1357.4295-.3645l.133-.0893c.4404-.0359.4243-.0852.4272-.1361.0217-.3943-.4136-.0011-.6805-.1998-.5535-.412.7023-.5778.8303-.2553.1311.3301.1812.3062.5404.3447.3199.0344.1862.7251-.4681 1.2316-.0835.407.0438.4158.4595.4962.1606.0311 1.3581-.8975 1.9249-.9505.9228-.0865 3.224-.6225 4.9643-.7936.0448-.0047 1.1918-.5141 1.1935-.5658.0022-.0719-2.6073-3.6419-2.9159-3.8824-.3865-.3013-.3736-.3015-.7479-.6277l-.2093.0541c-.3427.2684-.3677.1917-.7046.2237-.1055.0656-.2111.1313-.3167.1969-.0001.2065.0538.2263-.0984.377-.0296.0293-.3245.3214-.4852.1878-.1396-.1158.0946-.1787-.0212-.3173-.0443-.0528-.1379-.0052-.2066-.0121-.268-.0266-.2063-.1165-.3015-.3614-.1805-.4639-1.2445-.4311-.8197-.9933.0175-.0232.3914-.5185.6103-.8591.1022.0506.1717.0606.1854-.0375.0062-.044.0425-.3038-.0505-.5542-.2823-.7599.4932-.3513.8405-.4309.781-.1788.4931 1.5548.6787 1.6147.241.0777.3671-.0922 1.8885 1.4058 1.3178 1.2975 2.8851 4.032 3.2961 4.1136.4354.0865 1.6328-4.0913 3.7076-6.4999l-.0341-.0826c-.0612-.0113-.1224-.0226-.1835-.0338-.3967.3034-.5672.0974-.6102.0615-.3225-.2696-.2617-.4653.157-.5208.0835-.0943.0719-.0911.1832-.1356.4725-.3283.6148.4083 1.0384.0273-.1321-.2353-.1077-.2351-.3114-.5029-.1925.0651-.2073.0984-.3578-.0384l-.0132-.0335c-.2602-.6979.5419-1.0798.4931-.5426-.0514.5639.0934.5259.4297.9828l.1158-.0844-.0145-.1052c-.0221-.0521-.0442-.1042-.0662-.1564-.5801-.9078.0179-.8745.072-.8347.3114.2298.2607.6539.2974.9564.0866.0758.0613.0948.169.1482.4018.1989-.1706.8127.3151.7312.0682-.2678.1107-.2394.3286-.4181.3559-.2612.5085-.3136.6508.106.0372.1095.07.0469.2449.0042.1438-.242.1177-.4284.3477-.2683.4012.2794.2147.6334.1882.6837-.035.2662-.0388.2621-.0399.2851-.013.1549.0261.256-.2286.2259-.4628-.0548.1124 1.0761-.1356 1.329-.4467.4557-1.432-1.2757-1.6772-.4318-.1154.3971-.2445-.0353-1.0003-.2373-.2006-.0537-.0713-.3117-.4618-.298-.2335.0082-.3256.0114-1.5692 2.4578-1.5157 2.9817-1.7145 3.5114-1.3419 3.6631 1.1671.4754 1.1369.5239 1.2386.5627 1.0908.4169 1.0335.5199 2.1112.9808.3719.159.7818.1036.7881.1079.1199.0806.0265.2127.9209.6419.0586-.069.117-.138.1754-.207.0948-.0241.1897-.0482.2845-.0723-.0415.1344-.0831.269-.1247.4034l.0311.0078c.0722.0221.17.0935.8799.6483.1412-.0114.1288-.0144.231-.0947l-.011-.0571c-.0254-.1161-.0529-.121-.1849-.2043-.0764-.0482-.2578-.7188.5292-.6608.3448.0255-.2727.813.6932.9931.0523.0097.189.0824-.228.6225-.0327.0693-.0655.1385-.0982.2078-.0154.1605-.1435 1.4995.3423 1.9862.5395.5407-.421.2859-.83.3653-.2771.0538-.2533-.5143-.2513-.5638.0102-.1097.0203-.2194.0303-.3291-.1979-.1726-.312-.1907-.3432-.1957-.3536-.056-.6564.3471-.8149-.3659-.0153-.0247-.1147-.184-.2066-.299-.4466-.0733-.3834-.1791-.6582-.5279-.0455.0881-.0908.1763-.1362.2643.135.4515.2208.4435.1268.9026-.0309.0422-.062.0843-.0929.1265-.098.2169-.0955.2163-.0108.4308.2464.3193.2001.3464.5111.6062.08.0669.0524.3808.0495.414l.006.2176.0064.1126c.0162.231.0374.2616-.0478.555.0477.0781.0953.1565.143.2347.0303.0429.0608.0858.0912.1288.013.0731.0263.1461.0394.2192-.2074.2751-.2113.3057-.2152.3375-.0577.4739-.3395.2731-.6106.6667.0793.2413.0527.2455-.0904.4501-.0886-.1958-.0851-.1914-.2319-.3374-.0489.0047-.472.0449-.4154.4491.0083.059.0551.3934.2949.684.4129.5006-.8356.3669-.8974.3665-.3819-.0018-.0987-.2549-.2995-.6452-.1403.1208-.1455.1093-.211.2915-.0015.0062-.0169.2843-.1524.3441-.7841.3464-.249-.828-.0845-1.0026.2344-.249.1673-.3376.5001-.4277.0356-.0886.0713-.1772.107-.2657l-.0417-.0142c-.428-.1317-.7695.1663-1.0324.0548-.0395-.0168-.1046-.0641.2254-.4865.1643-.2102.1993-.0501.4184.1015.0181.0125.5566-.011.5624-.0171.3825-.3997-2.0274-.3482-1.6745-.7739.3019-.364.3973-.357.4426-.3538.0415.0032.3519.1822.3695.2225.4497 1.0313.6817.1748.6709.1212-.0776-.3779.0226-.5126-.3538-.5474-.2004.1872-.2655.1916-.4156-.0337-.4347-.6528-.8548-.4347-.8574-1.2169-.0006-.1851-.1708-.224-.1818-.3462-.0468-.5233-.1334-.5102-.12-.5535.0601-.1927.0062-.184-.1181-.3404.038-.2338.0548-.2191.0936-.452.0297-.1773.4147-.1215.2123-.4325-.0989-.1518-.3664-.9055-.4493-1.0134-.6254-.8134-1.2616-2.9974-1.0995-1.815.2074 1.5137.2777 1.4947.4932 3.0071.1684.4491.0276.5786.4787.7581.0515.6551-.5952.5719-.3617.8.719.7019.4801.8276.4096.856-.415.1676-.87.0441-1.1251 1.0099l-.024.0969.118.1317c.0143-.0118.1255.0452.1476-.121.0968-.7301 1.0408.0237.5114.2848-.6983.3443-2.094-.4805-2.3393.7201-.1479.7239-.5229.3934-.6883.4149-.2128.0277-.2963.004-.225-.1909.1464-.4002.0693-.672.4624-.487.3265.1536.4071-.5443-.01-.4853-.8998.127-.8946.0101-1.8073-.0307-.3037-.0136-.3984-.3324-.551-.3783-.0885-.0267-.0765-.0231-1.0499-.484-.4626-.219-.0308-.7378-.4928-1.3251-.0384-.0487-.3349-1.9375.6493-.9983.1232.0482.1148.0476.2051.1341.049.0682.0983.1364.1474.2045.1667.1707.1539.1695.3075.3546l.1214.0998c.0255.1261.0221.1191.1191.2114l.0216-.0012c.1085-.0089.236-.0828.7539-1.2037.0349-.0757.2869-.6214-.3858-.9678-.0153-.0078-.6137-.0483-.6563-.1532-.1901-.4688.0774-.6592.1232-.6918-.0281-.0508.0171-.0518-.0107-.102-.0058-.0103 0 0-.0878-.1204-.4908-.0549-.4623.0782-1.2842.7533-.0629.0516-3.5668 3.4997-3.5712 3.5318-.021.1925.3154.1679.3478.2196.0359.0577.1527.3482.165.3788.2361.5874.2292.5964.0949 1.2097-.1229.5612.5662-.0416.6636.3207.086.3197.4768.3606.264.5342-.1191.0971-.1506.0368-.3304.2372-.1717.1914-.1565.2023-.3965.2962-.2096.0819-.6926.7457-.6936.7466-.1601.1483.2668.2501.0621.5256-.317.4269-.285.7674-.7217.4583-.1477-.1046-.3925-.7341-.7656-.7215l-.0374.0798c-.7018 1.0213-1.2928.4061-1.2964.2202-.0211-1.0795-1.1678.3361-1.9837.3652-1.3153.0468-1.2886.1777-1.9251.4067-.6662.2397-6.518 1.7041-7.1248 1.9979-.1567.0372-.1487.0365-.3179.0518-.1529.0393-1.6526.4233-1.9179.4532-.9604.1081-.9334.2153-1.0163.2222-1.9019.1575-1.8684.3188-2.0326.331-1.0633.079-1.0053.2936-6.1184 2.9951-4.448 2.3501-4.5148 2.5303-7.4332 4.0898-.3666.1784-.339.2111-.6886.4269-.7997.4937-.8316.4214-.8795.4859-.0204.0277-.0556.3018.4267.0633.6572-.3251.6127-.3809 1.2607-.7247.4652-.112.4568-.113.911-.2779.0282.0882.0566.1763.0849.2645.0629.1718.0583.1731.068.1856.4861.6298-.5874.7255-.7988.8778-.7321.5274-2.2212.3698-2.8561.5404-1.3464.3621-2.0932 3.2458-2.6497 4.1002-.373.5724-1.4398 3.0862-1.5244 3.1919-.0277.0371-2.9381 6.3938-3.0433 6.5336-.0265.0352-1.8228 3.8451-2.0792 4.2534-.0558.0887-.3895.6201-.5978 1.164-.3104.8105-.6855 1.2584-.7826 1.4668-.8465 1.8184-1.3812 2.4723-1.78755 3.4473-.16929.4064-.28384.3315-.46452.7238-.56998 1.2373-.70255 1.2047-.72174 2.0015l-.00644.0617c-.01442.1253-.02559.1331-.07832.2832-.31704 1.8016-1.44866 17.0685-2.13692 20.3825-.3 1.444.55162 4.715.18006 5.341h-.3386c-.5404-.945-.33851-1.005-.46684-2.081-.32177-2.702-.06622-4.154-.00369-4.509.69368-3.942 1.06425-11.747 1.88287-18.8061.25994-2.2414-.33471-2.1453-.5004-2.0965-.89244.2636-2.63114 1.7121-3.6888.7123-.41998-.397 1.35025-.6892.83298-1.4132-.02081-.0291-.26293-.3679.25015-.3704.79763-.0041.78267.1016 1.57837.0928.41004-.0045.38997-.0833.79267-.0825.01647-.0114.02792.0151.22682-.1053l-.04053-.084c-.86042-1.8092-2.29407-6.5961-2.32196-6.6759-1.24728-3.5668-.9953-5.4218-1.61246-6.4055-.1655-.2636-2.541468-6.2284-2.507608-10.359.047178-5.7711-.244583-5.818.730918-9.5802.25531-.9845-.506993-2.4839-.33015-3.1505.19108-.7207-.02108-.7587.24381-1.4546.10824-.2845.2615-.8452.28182-.9195.19007-.6958-.723718-.6724-.605321-1.2274.083861-.3926.521221.3576 1.187211.4809.23994.0444.39842-.1549.42134-.1836.24108-.303.30841-.2075.68807-.4671.90203-.4856 1.89665-.0371 2.13514-.3139.08536-.0991.92018-1.454 1.01632-1.5712.14966-.1825.81886-1.3728 1.14403-1.7947.14052-.1823.57735-1.0016.62464-1.0903.19908-.3733.56738-.89.54579-1.0339-.0658-.4381-.1334-.4275-.05383-.9038.02866-.1716-.3042-.4787-.31221-.56-.04661-.4715.00794-.4764-.20582-.9076-.11363-.2292.16078-.4464.16676-.4598.01849-.0416-.06379-.022-.10386-.559l.00243-.0188c.00172-.0237.00338-.0779.02354-.3018.01928.012.03801.0229.05615.0328s.03575.0186.05278.0265c-.03406-.0158-.07037-.0352-.10893-.0593-.02562-.0345-.42888-.8137.43665-.3046.20851.1227.14483.1656.09563.4004l.04602.2302.04412.0323c.22735.1718.54479.4898.53449.5394-.08397.3966.29743.4222.78602-.2283-.4702-.8613.5912-.6373.8543-1.0352 1.0192-1.5409 1.9395-3.3675 2.9211-4.736.376-.5243-.5997-.0913-.7411-.0737-.9865.1229-2.0393.5223-2.8224.567-1.07141.0611-2.83327.6348-2.89219.7923-.10766.2876-.17683.3719-.47592.1667-.10545-.0723-.7565-.0103-.65165.2541.14986.3779-.1002.3251-.49861.25-.16883-.0319-.19583-.2922-.55518-.2057-.04671.0113-.04072.0135-.57598.1723l.13299.0898c-.05248.1793-.10489.3585-.15737.5377-.25441.0693-.24589.0777-.26799.0814.06086.166.7658 1.2296.07019 1.1226-.29898-.046-.07544-.8445-.2208-.9471-.03262-.0229-.0857.0423-.11832.0192-.06557.0273-.14164.0232-.2072.0506-.1537.0641-.23897.6671-.56943.0751-.44794-.4046-.26875.7291-.82021.5019-.47058-.1939-.45254-.8862.20371-.6938l.03177.0099c.10237-.0503.13455.0024.17225-.105l.14407-.1536c.11343-.1187.1594-.1586.35697-.3491l-.02111-.1638c-.26637.0079-1.24507.2131-.92883-.4794.00723-.0158.01314-.0095.17711-.1291.06534.0516.13056.1032.1959.1546.16669.1411.18843.2104.38557.0583-.47322-.5138-.49441-.501-.50062-.5607-.07178-.6871-.25653-.8116.21469-1.0653.00451-.0042.46124-.5028.83562-.4309.55427.1064.1486.458.03167.72.05518.0723.11041.1446.16571.2167-.07122.013-.14231.0258-.21353.0388-.06308-.0353-.12616-.0705-.18924-.1059-.45394.3615-.05255.4087.19948.6233l.01436-.0082c.06836-.036.09334.0013.12117-.0767.08273-.2327-.03741-.211-.14577-.4325.07122-.013.14231-.0258.21353-.0388.01928.0566.01711.0504.3633.6536.26726-.0372.24879-.071.3787-.2951.02076-.0358.77679-.7123.40879.3128-.0243.0679.40349.2795 1.38543-.0747.06286-.0013.45909-.0091.7364-.2748.00836-.1998.01748-.1945-.06491-.3733-.04582-.024-.09181-.0478-.13763-.0718-.2204.3162-.20092.3536-.57302.4679-.02387-.0198-.24568-.2033-.28541-.2611-.2071-.3013.03038-.27.3253-.4824l.27453-.1696c.0008-.0648.00992-.8105.14556-.7933.28531.0362.47203.6105.92755-.0839.22131-.3373.40085.3829.53323.3019.12662-.0777.0789-.5639.65915-.187l.05816.0391.20086.149c.40959.4267-.05534.9042.44646.8404.91534-.1163.87234-.2762 1.79314-.4186.1386-.0215.0966-.1749 1.6951-.449.0781-.0134 1.1728-.2011.7694-.6149-.3709-.3803-1.3049-1.1085-3.5956-3.477-.0377.0174-.0436-.0173-.0586-.0391-.0067-.0049-.0131-.0098-.0193-.0147-.0074-.0017-.0166-.0006-.0286.0049-.0146.0068-.0054.0142-.0219.1577l-.0087.0702c-.018.0352-.1869.3669-.48588.0789-.13849-.1334.03023-.897-.46199-.688-.12697.054-.10893.5252-.26672.6063-.05812.0298-.12968.0255-.18893.0536-.07607.0359-.1295.5926-.48605.5432-.16484-.0228-.08837-.1021-.11895-.6915-.06941-.0365-.13873-.0729-.20814-.1094-.1974.2132-.31466.4087-.37301.1149-.03453-.1736.1437-.4857.01214-.5403-.07833-.0325-1.26183-.1114-.87489-.4735.18251-.1707.33855.0046.67952-.2243-.18002-.1105-.16566-.119-.37639-.1629-.03971.0063-.4028.0648-.5004-.0081-.44726-.3341.1051-.494.16086-.5476.24761-.238.25974-.0153.43422.2749.14898.1043.34565.2618.37501.2853.04108.0008 1.23776.0239.44225-.2579-.49944-.1769-.51085-.1769-.81525-.6136l.05087-.0998.10618.0313c.07912-.1714.19088-.2667-.00422-.2634-.07855.0013-.15545.0309-.234.0295-.33284-.0061-.48586-1.0722-.02322-.6639.5965.5267.70001.85.72902.9405.26146.2749.50668.4917.57387.5714.1791.2125.43316.0742.62695.1802.88093.4822 1.11875.7205 1.20015.8022 3.3705 3.3803 3.3657 3.3762 3.371 3.3801.5848.4405.8415 1.0413.8113.5603l-.0038-.0499c-.1265-.3443-.0525-.349-.1563-.6858-.2662-.8628-.1887-1.1993-.2309-1.3499-.3122-1.1141-.479-2.5791-.5047-2.8058-.0744-.6532-.556.259-.7795.0439-.4497-.4331-.7827-.3835-.5127-.946.1574-.328.5402-.25.752-.3789.432-.2627.341-.385.8089-.5774.4945-.2033.1764.1782.1522.2618-.0672.2338.8106-.3541.6623.3531-.1248.5953-.0819.7426-.693.7972-.029.0383-.0581.0767-.0871.115.0077.1988.0619 1.6062.3026 2.4659.4303 1.5356.0198 1.8699.5549 1.9076l.0649-.8897.0973-.5662c.1398-2.3075.4726-2.268.4421-3.1681-.0095-.0324-.0189-.0648-.0284-.0971-.1075-.1423-.1151-.2073-.1174-.2277-.0605-.5306-.3773-.5581-.0678-.9926.2448-.3437.38-.1388.7068-.3975.2355-.5882.1778-.6116.5678-1.1243l.0328-.0672c.0251-.0508.0351-.064.0974-.139l.0304-.0675c.0522-.1195.052-.1545-.0069-.2724l-.0344-.0665c-.1663-.0087-.1587-.0124-.3135-.0883-.5366-.2116-.7642-.198-.5762-.7395.0237-.2007-.0068-.2078.1312-.3457.3148.0085.3086.0351.6195-.0102.0524-.0074.1248.7169.7286.0167l.1608-.3193c-.0472-.3777.098-.3122.3166-.4368.2369-.1352.3891-.1783.3509.0928-.0303.2149-.0631.2278.086.398l.0429-.0181c.2037-.0932.248-.2163.3802-.0212.0306.0452.476.4889.1172.7369-.0243.0166-.7159-.0203-.4253.2555.2365.2243.9011-.1442.8078.2296-.0892.3572-.5568.515-.4179 1.1064.1586.6749.3618.5519.6132.4488l.096-.2052c.0086-.4209-.1738-.6773.4846-.7173l.0658.0032c.135.0073.1515.0166.2933.112.0437.0294.0496.0128.631-.1896.0036-.122.0071-.2442.0107-.3662-.1431.0768-.1333.0711-.294.0705l-.0496.0162c-.1687.0504-.6715.1555-.7375-.3946-.0326-.2721.2633-.2771.2959-.2775.5765-.0097.4491.2063.4678.387l.158.0671c.0396.0171.0376-.0001.0749.0131.0033.0012.2014.0736.2188.08.1777-.039.1703-.0904.3238-.0312.3767.1451.2593-.1174.4066-.4868.1113-.6374.0115-.644.2176-1.246.0941.0474.1884.0949.2825.1423-.0234.0842-.1164.1377-.1396.2219-.0311.1119-.0005.2333-.0181.348-.0007.0049-.064.4164-.0696.4524l.0122.0008c.0421.0049.1714.0243.2203-.1191.1089-.3194.3795-.4724.6934-.1713.0497-.0136.3958-.1273.5021-.0093.5036.5588.3264.8123.2843.8725-.2468.1778-.3051.1272-.4663-.1348-.0429-.0309-.0857-.0619-.1286-.0929l-.2085-.0076c-.0298.0153-1.0073.6928.105.4036.7049.3562 1.1388.2206.8629.8027-.2121.4474-1.2042-.1634-.9053.4907.1074.2349.0297.2536-.158.3935l-.039.0297-.0976.268-.1967-.1066c-.0075.0143-.4927 1.3092-.1356 1.872.1932-.0042.1859-.0049.3503-.0942.353-.2572.5103-.2174.5746.2102.012.0096.0056.1549.1983.1583.4046.007.4941-.0701.6436.3069.1173.2957.2454.4553-.0776.4501-.3784-.0059-.3936-.6085-.763-.4229-.4373.2197.7883.9788.1172 1.4685-.8514.6214.9918.7492 1.0982.7566.3749.026.3235-.8374.3189-.9148-.0128-.2171.1043-.2008.0796-.5482-.262-.5268-.0619-.5511.4024-.9008.2442-.1836.8046.3123.7605.5446-.0556.2921-.0928.2868.0084.5691.1056.2949-.2798.2496-.1731.5447.4182 1.1574-.0253 1.1203-.2638 1.4837-.0151.0231-.0803.1225.1161.3248.1894.1951.1781.1941.2433.452-.0055.0885-.0111.1769-.0166.2655-.5652-.0042-.3114.958-.7004.5573-.0445-.0459-.118-.0849-.1293-.0909-.223-.1186-.1808-.1497-.2204-.3882-.032-.141-.0641-.282-.096-.4228-.5947-.055-.627-.0275-1.024-.4596-.0634-.0257-.1268-.0515-.1903-.0772-4.2833 1.9069-5.3865 1.7113-7.6986 2.2991-.359.0912-.7811-.0556-.5155.5584.1007.2329.5368 1.6427.8204 2.1745.059.1107.0026.128.5781 1.459.4783 1.1066.7305.9399.7702.8568.2203-.4623.3557-.7515.6298-.318.0241.0381.5096.3113.5252.4682.0305.3067.0576.3004.3123.4912.2063.1546-.0533.5932.4683 1.212.0107.0129.003.0152.0406.2053-.0186.1635-.0162.1561-.0574.323-.1282.5372-.3305.8107-.6176.3461-.1122-.1816.1595-.5245-.1454-.7599-.031-.0239-.2812-.2172-.3606-.3261-.0225-.0309-.7629-.401-.2702.393.8859 1.4279.7975 2.2367 1.246 1.8726.2653-.2154.47-.1618.3729.1721-.1106.3798.9856.3567.5404 1.0493-.148.2302-.1815.0329-.272-.0178-.1297-.0724-.3307.2885-.3492.3217.0632.5798.3053.2321.3732.1577.0701-.0536.1401-.1073.2101-.1609.2886.1952.8653.0157.4617.5815-.1088.1525-.0807.496-.2439.4381-.6249-.2219-.9517-.5158-.8059-.1045.0196.0553.4469.3702.4713.37.1092-.0023.0992-.1057.454-.046.4607.0773-.5463 1.2426-.9528.4822-.2074-.388-.7833.5903-1.3835-.3834-.0439-.0714-.0486-.0579-.1051-.1255-.0261-.1678-.0107-.1552.0256-.3116.0168-.2353.0228-.2269-.0287-.4587-.0402-.1621-.0379-.1547-.0533-.3214-.0082-.1889-.0164-.3779-.0246-.5669l.0106-.4078c.0038-.3806-.0889-.4883.1345-.4997.0036.002.2074.1161.2256.1263.0556-.024.1113-.0481.1669-.072l.0175-.0477c.1651-.4894-.1778-.8693-.4262-.7117-.3378.2144-.5258-.2907-.2246-.7599.0448-.0697.0985-.1538-.3595-.9717-.1173-.2093-.8919.2687-.7589-.4832.044-.2481.6294-.0098.4091-.3144-.6848-.9472-2.0396-5.3835-2.3186-5.3863-.2275-.0021-3.0659 4.4233-4.2287 6.9032-.188.401-.3028.324-.4655.7314-.17317.4336.7017.8162-.0372 1.1436-.06624.0293-.27152.2676-.35822.2869-.80485.1786-.65601.6877-2.90226 4.1967-.26242.41-.29019.3809-.54516.7983-.42955.7035 1.09233-.2221 1.3145.1986.10756.2037-.08115.1414-1.23059.5068-.33767.1073-.4328.0034-.86992.6519-.2913.432-.21031.7077-.32013 1.2-.10331.4637.93111.2 1.05221.7964-.54277.7268-.96575-.4203-1.18415.028-.1641.3367.20024 2.3493 1.00588 1.1351l.03873-.0603c.00972-.0852.06234-.5498.37016-1.0048l.1045-.0406c.03781-.0174.94577-.5356 1.21158-.242.03793.042-.22267 1.1012-.30461 1.1862-.11422.1186-.11765.1026-.20614.2419-.04649.0293-.09304.0586-.13942.0877-.27884-.0757-.26916-.0964-.43423-.0882-1.1412.0572.92539.3634 1.02234.4188.22014-.0644.20603-.073.44383-.1007.06043.0054.98259.0073.78591 1.0263-.07525.1362-.09123.3016-.09394.3287.16014.1521.30297.2074.3328.2189.27979.1086.13712.5769-.25416.7631-.4903.2333-1.1395-.6869-1.00767.1571.01727.1101-.07801.2064-.08433.3378-.06048 1.2617-.92667-.0734-.93242-.1111-.05564-.3946-.05681-.4225-.41776-.6084-.6567-.3383-.29209-.7238-.50842-1.1797-.32495-.6846-1.5033-.3923-1.19111-2.9541-.04062-.0308-.08139-.0614-.12212-.0922-1.34773 2.3094-2.15922 4.0197-2.30211 4.2486-.37539.6011-.29283.6342-.69926 1.9473-.18633.6019-.14657 1.0133-.17648 1.1093-.41264 1.3203-.38567 8.8841.16951 10.8029.11671.4035.00656.4166.14957.811.49975 1.3785.2545 1.4532 1.98462 5.7148.14876.3662.35809-.1052.37332-.1275.52919-.7731.04063-1.1796.04275-1.545.00406-.7213.41636-1.1289.49038-1.202.49931-.4936.42372-.5437.7554-.9351.83439-.9845 1.41681-1.2127 1.56729-1.2716.74712-.2926.25562.3582.12307.3678-.35576.0255-.59542.253-.73673.3389-.0232.027-.30997.0647-.04623.172.33553-.0747.32538-.0887.44795-.08.23407.0168.26624.1799.86803-.1403 1.25891-.6701.76273-1.6115 1.14129-2.2149.11387-.1817-.3331-.6933.14048-.4626.50732.2471.17809.9827-.0209 1.9353-.15146.7249 1.99497-.8729 2.85497-.597.5435.1744-.3692.3034-.6068.4486-.899.5493-3.66505 1.1446-4.10761 2.1965-.2614.6211-.36486.5469-.76227 1.082-.78349 1.0551-.88905.9609-.94571 1.0593-1.39727 2.4236-1.03033 2.9875-1.0064 3.2401.02867.3026.47433 2.5552.49069 2.6057 2.12223 6.539 2.87962 8.9191 3.40615 8.8518.25007-.0322 2.98295-4.9806 3.02005-5.0543 3.7151-7.3717 3.8419-7.8756 7.0282-14.7368l.6801-1.4609c.0373-.1294.0365-.1206.117-.2243l.03-.0431c.3322-.5054 1.3477-2.8541 1.4547-3.1014 1.053-2.4355.5466-2.8386 1.0937-5.416.0268-.1263.1986-.9362.31-1.5809.0216-.1255.256-1.4816.267-1.5693.0159-.1844.0226-.1699.0853-.3452.2593-.9321.6064-2.3885.6561-2.597.7267-3.0498.7535-3.0302 1.8147-5.9708.6191-1.7155.6722-1.6859 1.3508-3.3831.4305-1.0768-.2033-1.6985.319-2.3047.6992-.8116.8267-1.8766.8733-2.06.0805-.3163 2.0792-6.6179 2.1013-6.6595.0573-.1028.0291-.0998.544-1.3664.116-.2856.6589-1.3694.7259-1.4387.3603-.3718.4155-.7552 1.0153-1.3518.697-.6932.454-1.0341.4707-1.1214.152-.7927.1253-.7898.1498-1.4654.0041-.1123.2956-1.612.7245-2.0399.7016-.7001.4098-1.0034.6883-1.0048.0902-.0005.4045.0993-.2696 1.0925-.2142.3158-.2406.3242-.1373.8158 0 0 .0918.4092.0999.4448.0325.028.065.056.0975.0838.6829-.4379.9325-1.4854 1.982-2.5778.1069-.1114-.0267-.2136 1.1828-1.526.0857-.0929.9175-.9956 1.0622-1.1691.001-.1727-.0067-.1586-.0586-.3119.1318-.159.4018-.189.5025-.4838.1051-.308.0756-.3839.3934-.4007.2472-.0131.6155-.8282 1.787-2.0618.0069-.0072.1737-.2183.1887-.2373.0138-.1618-.0063-.1537-.0807-.3009l-.0089-.0606c-.0171-.1234-.0104-.1324-.0021-.2877-.1028-.0018-.2056-.0037-.3084-.0056-.7749.0152-.3493-.3882-.3762-.5487-.0715-.427-.3243.4408-.6159.1908-.4847-.4155.015-.5291-.0564-.8729-.0196-.0936-.4046-.3809-.4433-.4099-.2841-.2119-.2203-.2562-.3441-.5926-.0635-.0331-.1272-.0663-.1907-.0994-.0384-.0016-.437-.0196-.4597-.1355-.022-.1124-.0152-1.0825-.7917-.3518-.1328.1251-.2214.2139-.245.0278-.051-.4015-.2111-.4854.1312-.7054.0051-.0713.0102-.1425.0154-.2137l-.0202-.0365c-.3998-.7498.9351-.5424 1.0346-.538l.2266.0827.0534.0111c.251.0549.2654.1007.3621.0024.7459-.7578.8868-.4392 1.7192-.3907 1.8562.1082 1.8624.2075 2.0104.1435.1051-.0455-.0677-.7833-.0833-.8499-.0929-.3962.3866-.5707.5403-.4265.3209.3014.3654.1862.8095.1856.5602-.0009.1515.4987.1456.5504.0816.0655.172.0199.2422.4538l.029.0132c.1383.0608.1826.0374.8244.0745l.3229.0021c1.4118.0119 1.5216.05 1.7062-.027l.0412-.0183c-1.4055-1.3607-1.6445-1.5645-3.1149-3.5915-.0382-.0443-.5999-.69676-.7192-.1364-.0519.2436-.018.3072-.2675.3303l-.1846.0324c-.1264.1586-.1275.2798-.2361.1541-.3006-.3476-.3451-.4151-.0656-.7842.0775-.0698.1549-.13973.2325-.20966l.0594-.12215c.1308-.26548.1859-.40346-.2712-.61846-.1351-.06355-.0976-.09972-.1433-.31476l-.0104-.04549c-.1337-.15945-.1265-.1507-.2863-.28875.067-.0206.134-.04101.2011-.06161l.1398.07561.0503-.00021c1.0435-.01656 1.3777-.88248 1.5483-.30739.0105.03525.7323.34403.2808.64469-.0247.01644-.2987.19893-.2741.25073.0339.07126.1362.08307.1919.139.1453.14651-.4455.76815.107.5041.4393-.2099.552.26465.137.41525-.1209.0438-.1064.0465-.2252.0983l.0119.0538c.0384.1526.1702.499.7952 1.1483.4607.4786 1.7478 2.2303 2.1991 2.2633-.0303-.448-.288-4.25951.0388-5.6134.0163-.06759.3751-1.55397-.4192-.75072-.5695.57599-.2513-.6606-.2655-.71566-.1123-.43571-.418.1973-.6781.1151-.5651-.17835-1.1506-.05221-.7092-.48315.3353-.32745.5231-.19315.5802-.64784.0339-.26823-.0035-.26016-.187-.46555-.0333-.03719-.2376-.1595.3169-.48915zm-39.61682 69.63727c-.5526.2679-.85344.0885-.80502.6932-.03678.0707-.07352.1415-.1103.2122-.0228.0366-1.38739 2.4396-.02554.5375.47504-.6635.39269-.7302 1.03332-1.2244-.00223-.0061-.00126-.0118.00179-.0173.00306-.0055.00819-.0108.01414-.016.01975-.0172.04857-.0335.04117-.0539-.00406-.0111-.00833-.0111-.0685-.0616-.02009-.0169-.04644-.0393-.08106-.0697zm.19009.153c-.01859.0086-.03719.017-.05404.0274l.02639-.0143c.00907-.0045.01835-.0088.02765-.0131zm-1.99212-22.3393c-.0242-.0203-.06598.0193-.09678.0214-.00711.0005-.01363-.001-.01921-.0057-1.4859.2329-1.79079-.1298-1.87454.4513-.05072.3529.45572.8175-.25047 3.364l-.03451.1229.06122.064c.12467.129.12805.1211.14059.1365.39134-.9897 1.82453-3.5092 2.11613-3.9069l.0246-.0317c-.00533-.0173-.06703-.2158-.06703-.2158zm2.26327 2.2611c-.00285-.0027-.00531-.0052-.00739-.0077zm46.15188-.5627c.2681-.112 2.2864-2.135 1.3436-1.5992-.0563.032-1.2923 1.2123-1.4037 1.3187-.017.0159-.5874.5512.0601.2805zm4.0159-3.3739c-.117-.2617-.2018-.2138-.4425-.0503-.1277.0868-1.4563.9897-1.5291 1.1792-.0515.134.2285.2277 1.1-.6029.042-.04.0824-.0785.704-.1768.0558-.1164.1117-.2329.1676-.3492zm-.9998-.2608c.4643-.3834-.3852-.2075-.4217-.2-.722.1495-.6279.3201-.837 1.0324.0183.0558.0366.1115.0549.1674.0592-.0227.0605.0079.1177-.0451.5375-.4978.5268-.4927 1.0861-.9547zm14.5936.3707c-.486.0979-.061.361.0753.437l.0373.0201c-.0207-.2417-.0211-.2302-.1126-.4571zm1.3551.396c-.0086.0088-.0165.0172-.024.0252.015-.016.0319-.0336.0516-.0528zm-2.1387-1.6318.2613.6516c.369.189.9209-.2207.7651.481.0068.2037.0282.1917.1201.3693.1994-.2652.212-.2667.5455-.3049.2204-.0852.2154-.0901.355-.2903l-.1454-.2049c-.0978-.1069-.0993-.0952-.1282-.2408-.0804-.0732-.087-.047-.2083-.0641-.0243.0086-.2866.1009-.3207.042-.0327-.0564-.0007-.1362-.0333-.1925l-.0693-.0282c-.3278-.1256-.3925-.0322-1.0361-.287zm-6.4646.5479-.0775.0224c.0635.106.0297.1075.0997.2245.2347.0018.2266-.0158.4536.0035.931.0795-.2004-.3275-.2313-.3386-.0815.0293-.1631.0588-.2445.0882zm3.3718-5.2747c-.0114-1.382-.5503.9704-.5618.9938-.3671.7223-.6932 3.5731-.6675 3.6361.1755.421.7373-.2362.9269.3217.0221.0652.0237.1363.046.2015.0754.22.4827-.0417.1959-.3366-.2738-.2816.1155-.4741-.2082-.6939-.8496-.5769-.0105-.7419.1423-1.2115.1004-.3088.2237-.1631.5141-.314-.0638-.2814-.0813-.6839-.2117-1.2532-.1751-.7642-.1715-.7949-.176-1.3439zm-.4502-.4526c.092-.4568-.4839.0762-.6013.2512-.3971.5924-1.2568 1.4274-1.1555 1.5421.168.1903.0935.2089.1183.4584.0346.0719.0693.1438.104.2157l.014.0186c.2804.3897-.3415.7177-.5871.6652-.4822-.1031-.5403-.0793-.7659.3524-.1756.3359-.5156.7864-.3871 1.1356.1798-.0528.274-.1122.3272-.1757.0049-.0058.0093-.0116.0135-.0175.0252-.035.0396-.071.0503-.1079.0142-.0491.0219-.0996.0405-.1503.014-.038.034-.0761.0675-.114.0167-.0189.0329-.036.0487-.0512.0317-.0305.0616-.0538.0896-.0709.0141-.0085.0277-.0154.0408-.0209s.0258-.0096.038-.0122c.0061-.0014.0121-.0023.0179-.003.0234-.0026.0449.0002.0644.0073.0049.0018.0096.0038.0143.0061.0092.0046.018.0104.0262.0171.0042.0033.0081.0069.012.0107.0077.0076.015.0161.0217.0255.0234.0327.0404.0753.0506.1234.0014.0069.0027.0139.0039.021.0409.2481-.0905.6194-.4444.5676-.004-.0006-.0079-.0012-.0122-.0015-.0087-.0007-.0193-.0005-.0371.002-.0444.0063-.134.0274-.3518.0869-.0558.3551.1448.2119.5069.1902.4212-.0251.4328-.3408.7704-.0958.073.0529.8563.1784.9581-.7069.3188-2.7716.6463-2.6936.9436-4.1692zm-4.676 4.0852c-.2146.23-.1051.4096.19.2997-.0325-.1857-.0597-.1688-.19-.2997zm8.5051-.1337c-.0151-.0499-.1475-.1332-.2688-.0749-.0813.039-.0519.0556-.0817.1622.4513.3398.3589-.0597.3505-.0873zm-2.4782-4.1216c-.1072-.0011-.0915.0071-.249.0463.6677 1.3266.6516 1.3252 1.4603 2.5615.3139.413.3118.4107.339.4461.2983.3873.3704.287.8607.2464l.024-.0326c.0204-.029.0306-.048.041-.0674.0138-.0258.0277-.0523.0655-.1042l.2048.2274.0118.0336c-.0041-.0107-.008-.0219-.0118-.0336-.0683-.0758-.1365-.1517-.2048-.2274.0059-.0427.0708-.5089.5306-.0861.0833.0766.1723.3087.2875-.0195-.4526-.6113-2.1832-1.6635-3.3596-2.9905zm5.3456 2.8355c1.1317-.5948-.7511-1.1222-.5355-.6436.07.1552.4974-.0023.447.3439-.0272.1864-.0747.2172.0885.2997zm-3.0661-2.2853c-1.5871-.5571-2.9397-1.588-1.9818-.6317.0161.0157 1.8403 1.614 1.9179 1.6647.5572.3649.6447.8166 1.0127.608-.1823-.2792-.1897-.2557-.4397-.4805-.1534-.138.4053-.8396-.5091-1.1605zm-51.3378 1.3074.0669.154c.0481.1135.047.1182.0589.1328.5809-.1084.1436-.3009.1141-.3211zm44.998-.3337c.0073.012.0144.0215.0214.029s.0139.013.0206.0173c-.0135-.0086-.0275-.0223-.042-.0463zm2.414-1.9132c.5164-.3758-.3677-.4775-2.4631.7133-.9207.5233-.9201.5436-.9174.6326.0095.3115.8236.0312.878.0483.2067.0651.2068.0743.266.2762.1031.0018.2062.0036.3091.0054.4993-.3371.8412-.8851 1.9274-1.6758zm-19.0853-28.5828c-.1019-.0435-1.47.7291-1.9022 1.0104-1.5592 1.0147-1.5453 1.0219-2.928 2.2516-.3374.2999-.3678.6763-.401.722-.0651.09-.2012-.0976-.5556.3596-1.0834 1.3972-2.0498 2.2448-2.189 2.9177l-.006.0319c.0964.066.0882.0615.0965.0659.0463.0251.0442.0067.092.0326.4236-.7103.5996-.582.9516-1.3186.2065-.4319 1.0544-.7031.807.3334-.3136 1.3133-.8137.9468-1.1524 1.3644-.5081.6264-1.327.55-1.609.5759-.597.055-3.7843 4.5273-4.2647 5.3821-.5664 1.008.0692 2.0209-1.135 2.7255-.473.2767-.5409.1993-1.2159 1.0111-1.44 1.7319-2.7034 6.7267-2.9963 7.6154-.7144 2.1681-.6248 2.1922-.7061 2.373-.2798.6229 1.1104-.3795 1.2813-.3239.8079.2643-.3616 1.058-.9069 1.319-.8882.425-.7303.5974-.9073 1.1387-.0129.04-.3031.9278.0881.5168 2.5129-2.6403 3.8072-3.7414 4.0729-4.1354.2278-.3383.296-.2579.5603-.5692 1.429-1.6836 6.2301-6.5616 6.9276-7.3992.7077-.8501 3.2912-2.9707 3.6398-3.2274.731-.5382.187-.781.2986-1.1724.1914-.6712-.0365-1.0503-.0378-2.1393-.0008-.6405.2567-3.0375.2578-3.0424.2689-.969.4767-1.962.5126-2.1338.1539-.7355.7558-1.4216.5034-1.6882-.2237-.2362.0345-.2336.3188-.6946.204-.3307.1172-.5924.1538-.6541.1449-.2442.3688-.2023.2043-.5671-.1501-.3331.1589-.3207.328-.4746l.0985-.1162c.2812-.3296.1947-.5442.5991-.4512.1651.038.4152.3234.5232-.2062.052-.2539.4295-1.0386.4719-1.1267.0875-.1817.1226-.1292.2974-.1729-.0666-.0283-.1046-.1051-.1713-.1336zm10.8468 28.5695c.0147-.5536-.3317.2033-.3455.2338.2501-.0285.3388.0237.3455-.2338zm13.1572-7.6916c-.0687.0103-.1604.0152-.2668.0733.0456-.0249.0885-.0399.1281-.0499.0527-.0133.0994-.0175.1387-.0234zm-49.5189-4.5081c-1.1286.5738-1.1688.8499-2.5924 1.8394-2.1074 1.4648-2.4881 1.8557-2.6762 2.0488-.2812.1687-.5944.4774-.2474.3944 2.031-.4854 3.6301-.5125 6.7539-1.778.0705-.0954.0831-.1504.0727-.1857-.003-.0101-.0079-.0185-.0137-.0259-.0148-.0183-.036-.0296-.0509-.0415-.003-.0023-.0058-.0047-.0081-.0072l-.006-.0077c-.0243-.0093-.0467-.0187-.0671-.0283-.061-.0289-.1042-.059-.1314-.0902-.0045-.0052-.0087-.0104-.0123-.0157-.033-.0473-.0309-.097-.0001-.1481.0477-.0795.1646-.1625.3259-.2458.0718-.0268.3603-.0606.3635.1149.0009.0512-.0225.1202-.0825.2124l-.028.0409.1049.2267c.444-.2755.4402-.2553.9322-.431-.0406-.0198-.0023-.1086-.0431-.1284-.0347-.0168-.4086-.0649-.4442-.0695-.4726-.0608-.4208-.2355-.8947-.278l-.0398-.1004c-.0235-.0801-.0471-.1601-.0705-.2402-.6059-.0794-.5679.0848-.8007.3328-.1756.1867-.9223-1.121-.1049-.6707.2646.1458.2029-.2432.1899-.4443-.0176-.0101-.0213-.0187-.0724-.0547-.0383-.0269-.1032-.0694-.2207-.1394-.0391-.0233-.0841-.0497-.1359-.0796zm-3.9066-1.4417c-.1976-.075-.2139-.1104-.3676.0275-.1196.1039-.1083.0982-.1197.1039-.3099.1527-.2791.2157-.5105.4161l-.0499.0421c-.2336.0554-.2944-.006-.3497.2189-.3075 1.2531-.3274 1.2433-.3524 1.3523-.4317 1.8823-.4675 1.8718-.4934 2.0374-.1312.84-.1224.845-.1134.8556.1732.2078.151-.0429.3566-.4403l.0202-.0614c.1017-.3014.2536-.5863 2.2361-3.7631l.0189-.0787c.0836-.3694.0024-.3943-.2752-.7103zm3.3667-.3481c-.0364-.0185-.0811.0455-.1186.0374l-.0074-.0026c-.0729.0881-.6536.7895-.8651 1.1395-.12-.1234-.1792-.1852-.2112-.2185l-.0319-.0329c.0198.0199.063.0662.2431.2514-.3375.6534-.2321.7658-.3996.8456-.776.3697-.6854.5041-.7553.5272-.8499.2799-.7337.7392-2.6316 2.5428.0556-.0046.0862.0935.1418.0888.0663-.0054 1.438-1.1076 1.4456-1.1132 3.368-2.4967 3.4944-2.5568 3.8342-2.7184.4049-.1927.0627-.6088-.0891-.6061-.4307.0075-.4891-.0594-.4847-.4875-.059-.2438-.0522-.2444-.0702-.2535zm-3.2469 2.3668c-.2437-.3226-.2661.0524-1.147 1.3965-.5303.8092-.5802.8491-.4551 1.0271 1.4938-1.8313 2.498-2.3863 2.2236-2.4858-.0535-.0193-.1155.0434-.1689.024-.2181.1788-.2806.2658-.4526.0382zm-1.5404-2.079c.1084-.7962.4777-1.0816.0633-.9989-.5674.7684-.9085 3.7541-.8236 3.9391.1676-.368.1703-.3659.1766-.3983.236-1.1977.1903-1.1961.5661-2.3474l.008-.1159zm9.2147 1.5722c-.0197.0144-.0409.0296-.0637.0455l.0637-.0455c.0198-.0144.038-.0279.0547-.0408zm-5.346-4.4162-.044.1035c-.0116.0246-.0726.1547-.1492.2861l-.0338.056-.0847.3311c.2139.469.0137.6264-.4807.4724-.0498-.0155.0555-.1222-.439-.4799-.5942-.4299-.1915.1961-.1781.2142.0839.1116.0535.1176.07.2602l-.0079.2188c.7842 1.0538-.6883.111-.8918.3538-.2544.3036.1449.1083.5172.2656.2547.1077.21.1929.046.4098l-.0264.026c-.2254.2329-.1312.4275-.095.4951l.0111.0214c.1317.0976.1281.084.2985.0861l.1111-.1089c.0172-.0466.0706-.0172.2903-.5505l.0038-.0418c.05-.424.4502-.6045.723-.3595.3642.3271-.5727.491-.0547 1.387l.0509-.0337c.1427-.099.4573-.3596 1.0075-1.1802.296-.3062.733-1.1447.5961-1.54-.4306-.0416-.3713-.1535-.6255-.5051-.1974-.2999-.2647-.1713-.6147-.1875zm29.3353 1.2675c-.7243.2456-1.6004.8494-3.1485 1.0958-.1528.0374-.1885.0402-.4019.0644l-.2834.0335.0496.1268c.1857.0672 3.6397.2325 3.8276-.2069.0078-.0182.0031-.0182.0409-.2443l-.0012-.1474c.0001-.1515.0038-.2379-.0048-.3335-.0062-.0683-.0187-.1412-.043-.2458-.0097-.0419-.0214-.0889-.0353-.1426zm-35.2202 1.1846c.004.0007.0082.0011.0124.0014l-.0124-.0014c-.0041-.0007-.0078-.0016-.0115-.0027zm-.0524-.0574c-.0001.0022.0002.0044.0002.0065-.0001-.0061.0003-.0128.0019-.0201zm7.6263-1.3576c-.0445.0812-.5641.7-.2093.9778.4588.3593.549-.6796.2093-.9778zm26.3033-.9205c-.2839-.0418-.3027-.1293-.5308.0384-2.4717 1.8184-2.7906 1.6074-2.704 1.8547.0942.2688 1.6541-.4392 1.7898-.5007 1.1972-.5434 2.4589-1.0085 1.445-1.3924zm-3.3641-6.673c-.115-.1674-.1512-.2816-.2676-.1186-.3849.5396-.6914 2.1282-.9032 3.0652-.426 1.884-.1663 5.2516-.1594 5.2572.0473.0289.1169-.0033.1642.0255.0717-.1669.0213-.1854.8224-2.116.9111-2.1955.779-2.2498 2.0366-4.2746.2961-.4768.129-1.2069-.355-1.3722-.0235-.0082-.5786-.3528-.7903-.3818-.5299-.0724-.5339-.0648-.5477-.0847zm3.3884 4.0773c-.0442-.0289-.0885-.0578-.1328-.0868-.6614.568-2.3369 2.6028-3.6851 4.0384.0585.1497.0736.2295.1893.1241 1.1504-1.0477 1.063-1.1357 2.9053-2.5303.4917-.3722.5901-.3666.7233-1.5454zm.9923 3.2839c-.7703.1789-.7957.227-1.4315.4982l-.1356.0573-.0052.071c-.0017.0207-.0033.0386-.0049.0541-.0073.0695-.0128.0902-.0101.0992.0009.0029.0028.0046.0057.0064.0041.0024.0085.0035.0129.0038.0045.0002.0092-.0005.014-.0018.0189-.0053.0396-.0204.0585-.0257.0048-.0013.0095-.002.014-.0018.0044.0002.0087.0014.0128.0038.3111-.1148.3096-.1133.3361-.1241.9524-.3855 1.1292-.2682 1.1333-.6404zm-1.1251-1.7757c-1.5049 1.0159-2.6131 2.0171-2.826 2.2095-1.2529 1.1321 2.4775-1.3119 2.881-1.8356.0007-.2029.0135-.1935-.055-.3739zm-.881-3.6636c-.435-.4321-1.1318 1.3621-1.195 1.4502-.3736.5204-.2648.5673-1.7233 3.8669.1124.1242.1465.0711.227-.0746 2.1757-3.9404 2.5948-3.7148 2.6218-4.1032.0738-1.0628.1344-1.0749.0695-1.1393zm1.5932.7289c-.7764.3077-1.7187.9654-2.1429 1.5747-.1822.2618-1.9215 2.7978-1.9098 2.8704.0023.0139.0002 0 .1749.0215.1957-.2108.1118-.2795 2.3479-2.7225.7834-.8559.8428-.779 1.7038-1.5656.0083-.0076.0041-.0038.0418-.0695l.0535-.0917c-.0649-.0153-.1297-.0306-.1946-.0459zm-31.813 3.9145c.0209.0114.0428.0203.069.0273-.0175-.0047-.033-.0102-.0477-.0168-.0073-.0033-.0143-.0067-.0213-.0105zm.6046-1.9691c.0053.0023.0196.0229.0464.0486-.0202-.0193-.0332-.0358-.0407-.0438-.0025-.0026-.0044-.0043-.0057-.0048zm31.1609-9.0656c-.4381-.4593-.8454-1.3267-1.4038-.8644-.153 1.0972-1.0885 1.9979-.6359 2.4496.38.3792.9427.3793.6176 1.0351-.0383.0633-.0768.1264-.1152.1896-.0402.1412-.0149.1485-.1204.2473-.1932.1812-.2208.5387-.2256.6306l-.0011.0219.078.0813c.0053.0056.0079.0084.0097.0102.0019.0018.0031.0025.0053.0039.0068.0042.0128.0073.0182.0094.0162.0064.0272.0045.038.0025.0035-.0007.0071-.0014.0107-.0018.0056-.0006.0115-.0006.0183.001s.0145.0049.0238.0107c.2204.0177.1681.0958.3156.2478.24.2472.214-.4778.4678-.2479.0586.053.0318.2274.2366.2903.2991.092.2549.1713.5619.2567.1813.0503.4044.2205.4363.2448.1193.091-.3385.4988.014.4317.4636-.088.2252.207.2614.6834.0227.2977-.163.3841-.2441.4645.0022.1024.0045.205.0067.3075l.118.2307.1904.1067c.296-.1907.393-.3606.6438-1.3437.0319-.0943.2248-.6636.6954-1.0318.3451-.27.2604-.3498.6082-.608.7637-.5671.9619.9426 1.1668.3793.0136-.038-.1517-.5783-.1945-.622-.2304-.2349-.277-.1768-.4827-.437-.1141-.1444-.1557-.1005-1.6555-1.5996-.1219-.1218-.0946-.1447-1.4637-1.5803zm1.7221 5.4055c.034.0782.0679.1563.1017.2345.1684-.1802.3244-.3416-.0103-.3625zm1.3628-.2362c-.0198-.022-.3057-.3401-.3671.0016-.0311.1734.0562.117.2347.1422.0441-.048.0882-.0959.1324-.1438zm-8.2489-4.6152c-.0854-.1172-1.0743.3964-1.0874.412-.5227.6224-1.1827.2437-1.2866.388-.1974.2746.1151.1398.485.287.0072.0033.0146.0053.0222.0071.0154.0037.032.0065.0514.0176.0243.0139.0529.0406.0889.0981.0144.023.0299.0509.0468.0848.0254.0509.0538.1154.086.1974.7488-.7395.7841-.6885 1.5716-1.3816-.022-.0304.0441-.08.0221-.1104zm-2.7242-2.2809c-.6193-.0806-.3884.3974-.6887.4619-.4883.1045-.6391-.5442-.705-.23-.0181.0865.1266.4734.1357.4832.1612.1716.2486-.0362.6059.1881-.5115.2603-.4941.5304-.49.5917.0209.3204-.1519.2627-.2377.5754.0687-.0095.1199-.0161.1595-.0212s.0676-.0086.0901-.0119c.045-.0065.0678-.0118.1162-.0261.0108.0007.0213.0015.0315.0024.112.0107.1882.0388.2512.0616.0114.0042.0224.0082.0331.0118.0268.0092.0517.0164.0768.0194.01.0012.02.0017.0303.0015.0102-.0003.0207-.0013.0314-.0033s.0217-.0048.0332-.0088c.0114-.004.0233-.0091.0358-.0154.0063-.0031.0126-.0066.0191-.0103.0262-.0151.0551-.0353.0875-.0617.0276-.0225.0538-.0423.0787-.0592.0373-.0254.0716-.0448.1031-.0582.021-.009.0408-.0154.0594-.0193.0093-.002.0183-.0034.027-.0041.0131-.0011.0255-.0008.0373.0008s.023.0044.0336.0087c.0211.0084.0399.022.0565.0404.0111.0123.0212.0267.0304.0432.0277.0494.0472.1173.0603.2011.0087.0558.0146.1187.0181.1879.0017.0346.0028.0708.0034.1084.0012.0753.0003.1565-.0023.2428l.0948-.0064c.9777-.0777 1.907-.5527 2.6881-.8022.5788-.2689.942-.4041 1.0255-.4353.1174-.0437.0583-.1426 1.3758-.7477 1.3199-.606-.6362-.0264-2.26-.2465-.2615-.0355-.4651.7502-.6004.139-.133-.6004-.3977-.3352-2.4452-.6017zm-.67 2.1945c-.0413-.0052-.0847-.0001-.1279.0156-.0173.0063-.0346.0144-.0517.0242-.0513.0292-.101.0741-.1451.1355.4625.2834.4566.3158.5735.2969.0088-.0753.0066-.1423-.0042-.2006-.0044-.0233-.0101-.0452-.0171-.0657-.0105-.0307-.0237-.0581-.0393-.0822-.0207-.0321-.0456-.0583-.0732-.0783-.0208-.015-.0432-.0265-.0667-.0344-.0157-.0053-.0318-.009-.0483-.011zm3.5769-7.85471c-.0144-.0077-.0143.00578-.1909.07551-.0366.06711-.0731.13423-.1097.20134.3238.54656.5329-.15118.3006-.27685z" fill-rule="evenodd"/><path d="m25.7374 65.1818c.0965.1175.0974.1131.0849.2645-.0283-.0882-.0567-.1763-.0849-.2645z"/><path d="m71.6509 52.7276c.0614-.0456 1.1852-.8782.9235-.2337-.1561.3842-.3094.7203-.9235.2337z"/><path d="m72.5213 45.0712c.0084-1.0713.5328-.407.5411-.3558.036.2244-.0305.2146-.2566.2835-.0948.0241-.1897.0482-.2845.0723z"/><path d="m5.19037 38.7632c.26027-.0703.37866-.153.3728.1072-.00057.0289-.003.1386-.13088.3372.02561.1864.03134.1717.09826.335-.00858.0313-.07428.2722-.23125.3337-.32595.1278-.4514-.4289-.50072-.5371l-.09109-.0896c.05248-.1792.10489-.3584.15737-.5377.16489.0519.15972.0414.32551.0513z"/><path d="m58.7973 36.2739c.2385-.2453.559-.0672.8004.0735-.0685.0641-.15.1432-.2458.2393-.2252.2259-.2402.2409-.5596.1824-.6223-.1137-.1005-.3866.005-.4952z"/><path d="m59.5977 36.3474c.426-.399.3544-.2181.1576.0881-.0465-.023-.0998-.0545-.1576-.0881z"/><path d="m25.8698 34.4681c.2458-.0527.3103-.024.3348-.0132.2779.1237-.3159.2699-.3514.2787.0055-.0886.0111-.177.0166-.2655z"/><path d="m9.83523 29.8736c.11606-.1552.52837.027.57017.0455.6879.3042-.2106.4333-.251.4391-.0446-.0133-.55687-.1663-.31917-.4846z"/><path d="m23.0077 28.2758c.0661-.0879.0372-.2048.4704-.1302.3979.0685.2561 1.2066-.4965.5118-.1177-.0512-.1072-.0455-.211-.1398.1136-.1324.1038-.126.2371-.2418z"/><path d="m16.3724 24.1266c.2487-.2648.9294.7543-.1649.8012-.1569-.4323-.1459-.4704.1649-.8012z"/><path d="m21.8361 24.423c-.211-.4357-.1797-.6809.2912-.5698.7281.1718.3688.6328-.0087.7121-.0941-.0474-.1884-.0949-.2825-.1423z"/><path d="m49.429 24.1218c.5233-.1746.3523.164.3252.1758-.0208.0092-.0519.0229-.2806.0433z"/><path d="m53.0366 18.9011c.165-.0256.1514.0114.2509.1336.287.3455.3367.2972.5645.6826.3324.5623-.1939.8245-.594.3667-.3072.3025-.2987.2931-.3079.3049-.0815-.0339-.1631-.0679-.2446-.1018l.1099-.1245c.0824-.0881.0686-.0865.1581-.1821.0099-.0106 0 0 .13-.1267-.0585-.037-.1172-.074-.1759-.111-.0574-.0367-.5698-.3647.109-.8417z"/><path d="m41.4356 8.02683c.0552-.06598.3718-.09229.556-.02969.1984.06732-.0167.42653-.0356.45818-.0671.0206-.1341.04101-.2011.06161-.045-.01284-.5885-.1677-.3193-.4901z"/><path d="m47.7438 7.40658c.0466.01678.5448.19636.199.58508-.2278.25585-1.0686-.52753-.199-.58508z"/><path d="m48.2834 6.06246c.0147-.00486.4863-.17867.6775.05107.1081.13006.0123.13608-.1597.45419-.226.65718-.3926-.09718-.3999-.12995-.0354-.16024-.3309-.30504-.1179-.37531z"/></g></svg>
